PathFileType	4	(X/Y/Z)	C:/Users/opensim2020/Desktop/walking_exp_matlab/subject03_walking12_straight_02.trc	
DataRate	CameraRate	NumFrames	NumMarkers	Units	OrigDataRate	OrigDataStartFrame	OrigNumFrames	
100.00	100.00	4	48	mm	100.00	1241	187	
Frame#	Time	LFHD			RFHD			LBHD			RBHD			C7			T10			CLAV			STRN			RBAK			LSHO			LUPA			LELB			LFRM			LWRA			LWRB			LFIN			RSHO			RUPA			RELB			RFRM			RWRA			RWRB			RFIN			LASI			RASI			LPSI			RPSI			LTHI			LKNE			LTIB			LANK			LHEE			LTOE			RTHI			RKNE			RTIB			RANK			RHEE			RTOE			*39			*40			*41			*42			*43			*44			*45			*46			*47			
		X1	Y1	Z1	X2	Y2	Z2	X3	Y3	Z3	X4	Y4	Z4	X5	Y5	Z5	X6	Y6	Z6	X7	Y7	Z7	X8	Y8	Z8	X9	Y9	Z9	X10	Y10	Z10	X11	Y11	Z11	X12	Y12	Z12	X13	Y13	Z13	X14	Y14	Z14	X15	Y15	Z15	X16	Y16	Z16	X17	Y17	Z17	X18	Y18	Z18	X19	Y19	Z19	X20	Y20	Z20	X21	Y21	Z21	X22	Y22	Z22	X23	Y23	Z23	X24	Y24	Z24	X25	Y25	Z25	X26	Y26	Z26	X27	Y27	Z27	X28	Y28	Z28	X29	Y29	Z29	X30	Y30	Z30	X31	Y31	Z31	X32	Y32	Z32	X33	Y33	Z33	X34	Y34	Z34	X35	Y35	Z35	X36	Y36	Z36	X37	Y37	Z37	X38	Y38	Z38	X39	Y39	Z39	X40	Y40	Z40	X41	Y41	Z41	X42	Y42	Z42	X43	Y43	Z43	X44	Y44	Z44	X45	Y45	Z45	X46	Y46	Z46	X47	Y47	Z47	X48	Y48	Z48	

141	1.400	1482.37354	-519.91486	1617.14453	1352.16248	-491.23352	1616.36230	1507.69287	-389.55963	1592.16846	1379.06763	-365.77765	1590.20789	1441.77380	-332.41061	1420.13660	1431.51880	-314.40451	1101.55981	1446.65625	-455.21344	1347.05029	1453.45361	-507.37238	1185.27588	1336.32605	-294.54349	1239.78528	1598.56030	-390.22757	1380.08252	1667.32202	-380.74298	1182.46265	1677.33960	-400.59436	1060.83936	1671.91199	-468.01169	951.22876	1635.09363	-535.58240	856.88184	1679.66150	-505.02951	843.18225	1668.92810	-558.18744	779.70917	1285.18933	-416.11795	1374.67346	1201.84961	-446.13391	1159.08984	1186.91687	-479.31342	1051.90051	1186.17737	-525.32654	923.11365	1225.13098	-572.89233	837.17072	1178.59387	-547.60608	825.55701	1187.95557	-588.33514	764.80426	1558.28198	-481.45029	947.37177	1321.87598	-493.63239	947.82867	1500.55347	-321.37027	957.92352	1351.79358	-330.98605	972.91583	1610.38818	-510.85031	652.08002	1583.65100	-581.18567	488.11691	1574.73645	-513.31982	299.47162	1528.93506	-468.83289	96.61008	1485.02063	-427.28915	66.13535	1521.20618	-608.06757	45.22711	1284.99878	-429.21597	649.32971	1325.93311	-422.41833	471.35663	1322.25549	-358.11884	288.81235	1371.77258	-302.63928	79.58434	1418.41492	-252.36392	51.33957	1397.03381	-440.22998	37.71056	1446.94629	-438.70419	1689.20398																								 
142	1.410	1482.36914	-532.60608	1616.14282	1352.30908	-503.29510	1615.44739	1508.38708	-402.43683	1590.99963	1379.82104	-378.05945	1589.06470	1442.51538	-345.15945	1419.01086	1432.45483	-326.51886	1100.56250	1446.95044	-468.00266	1345.94373	1453.43103	-519.82446	1183.93555	1336.68030	-307.01035	1238.81238	1599.24072	-403.48392	1378.49902	1667.27136	-392.34280	1180.51099	1677.42896	-410.40939	1058.36511	1672.75757	-473.02808	945.42780	1636.94446	-535.81506	847.52362	1681.34326	-504.55798	835.64496	1671.52075	-554.39178	769.64410	1285.48218	-428.58276	1373.67371	1201.60913	-460.12823	1158.81641	1186.50403	-494.73648	1052.28162	1186.55603	-544.39227	924.96588	1226.31067	-594.23157	840.80963	1180.16895	-569.56598	827.97614	1189.66455	-611.88757	768.60193	1558.17041	-495.48969	946.68610	1321.78711	-504.47549	946.35254	1501.82153	-334.03427	956.43158	1353.00952	-342.17194	971.52924	1610.79321	-525.47260	651.84192	1583.38513	-595.91534	488.32159	1575.85120	-538.58533	296.01978	1531.45508	-508.38730	89.91379	1487.16626	-469.45587	56.83133	1524.52966	-650.92719	46.25423	1285.07507	-436.75757	648.50476	1326.07898	-428.10980	470.45804	1322.84668	-361.27704	288.73199	1372.43506	-303.04459	80.19080	1419.27869	-252.58553	52.34636	1397.11353	-440.29388	37.67842	1447.48083	-451.14880	1688.02075																								 
143	1.420	1482.37415	-545.28717	1615.11902	1352.39844	-515.28729	1614.41455	1509.06982	-415.49338	1589.64685	1380.73022	-390.21506	1587.78625	1443.37476	-357.83041	1417.88623	1433.50378	-338.82388	1099.35791	1447.24133	-480.84317	1344.66504	1453.42566	-532.47675	1182.56250	1337.32361	-319.34317	1237.74268	1599.92932	-416.95151	1376.82629	1667.21387	-404.14709	1178.44678	1677.57922	-420.53906	1055.83691	1673.62134	-477.93182	939.69983	1638.81519	-535.73218	838.44958	1683.14746	-503.70480	828.48163	1674.17151	-550.21674	760.23480	1285.91357	-440.95673	1372.57813	1201.43286	-474.02682	1158.28687	1186.21924	-509.90768	1052.33325	1187.04785	-563.14288	926.62903	1227.32349	-615.78705	844.69293	1181.53906	-590.98254	830.18713	1191.64441	-635.50897	772.45538	1558.26929	-508.17819	945.07281	1321.50549	-515.55951	944.93011	1503.29944	-346.68112	954.85138	1354.41040	-353.28552	969.83905	1611.12866	-539.78925	651.28723	1582.89148	-609.68829	487.71680	1576.89258	-563.02380	292.78085	1534.40820	-547.84619	84.44218	1489.72070	-511.44986	49.35624	1527.93872	-693.32343	47.92751	1285.44971	-444.56088	647.49323	1326.27612	-434.11911	469.40649	1323.43640	-364.66003	288.60013	1373.13721	-303.24872	81.02372	1420.18127	-252.62144	53.71075	1397.20020	-440.36313	37.61354	1448.05420	-463.73355	1685.74939																								 
144	1.430	1482.41736	-557.97156	1613.91736	1352.61121	-527.27820	1613.35962	1509.86987	-428.20688	1588.15283	1381.68518	-402.32974	1586.44604	1444.03503	-370.73987	1416.34314	1434.71643	-351.00748	1097.99268	1447.45789	-493.62140	1343.22949	1453.33093	-545.02570	1181.01245	1337.93396	-331.60251	1236.59949	1600.65210	-430.46841	1375.05212	1667.19983	-416.14191	1176.25708	1677.70142	-430.75131	1053.22534	1674.49133	-482.74634	934.17780	1640.80969	-535.59448	829.85657	1685.04468	-502.54312	821.77765	1676.66223	-545.30011	751.08411	1286.16174	-453.46219	1371.07825	1201.33325	-487.82138	1157.49658	1186.01709	-524.97638	1052.22083	1187.60388	-581.54706	928.08832	1228.41492	-636.60657	848.07843	1183.15881	-611.96399	832.38989	1193.83704	-658.52148	776.37769	1558.26685	-522.06049	943.67334	1321.14502	-526.14404	943.27216	1504.89319	-359.41861	953.23425	1355.89661	-364.42484	967.93927	1611.03406	-553.02509	649.94696	1582.48572	-622.60547	486.56741	1578.05969	-586.78503	289.70273	1537.68213	-586.53369	80.53743	1492.07251	-552.54163	43.68527	1531.52979	-734.56610	49.94673	1286.09265	-452.82870	646.34326	1326.52747	-440.53851	468.43634	1324.00745	-368.20392	288.60962	1373.87915	-303.78821	81.75278	1420.98413	-252.88620	55.07368	1397.44043	-440.30823	37.41780	1448.30591	-475.70309	1686.54187																								 
